<svg width="34" height="34" viewBox="0 0 34 34" fill="none" xmlns="http://www.w3.org/2000/svg">
<g id="Frame" clip-path="url(#clip0_71_680)">
<path id="Vector" d="M33.5125 14.8309L20.4692 1.50379C20.0175 1.02711 19.481 0.648913 18.8903 0.390867C18.2995 0.132821 17.6663 0 17.0267 0C16.3871 0 15.7538 0.132821 15.1631 0.390867C14.5724 0.648913 14.0358 1.02711 13.5842 1.50379L0.54093 14.8309C0.375326 14.9934 0.242247 15.189 0.149445 15.4064C0.0566424 15.6237 0.0059788 15.8584 0.000497852 16.0966C-0.0049831 16.3348 0.0348407 16.5718 0.117539 16.7936C0.200237 17.0155 0.32416 17.2177 0.482099 17.3884C0.640037 17.5591 0.828798 17.6949 1.03727 17.7878C1.24573 17.8807 1.46971 17.9289 1.69609 17.9294C1.92247 17.93 2.14666 17.8829 2.35553 17.791C2.56441 17.6991 2.75378 17.5643 2.91246 17.3943L3.4267 16.8664V30.4217C3.4267 31.3709 3.78491 32.2812 4.42253 32.9524C5.06015 33.6236 5.92496 34.0006 6.8267 34.0006H10.2267C11.1284 34.0006 11.9932 33.6236 12.6309 32.9524C13.2685 32.2812 13.6267 31.3709 13.6267 30.4217V26.8427C13.6267 26.3681 13.8058 25.913 14.1246 25.5774C14.4434 25.2418 14.8758 25.0533 15.3267 25.0533H18.7267C19.1776 25.0533 19.6099 25.2418 19.9287 25.5774C20.2476 25.913 20.4267 26.3681 20.4267 26.8427V30.4217C20.4267 31.3709 20.7849 32.2812 21.4225 32.9524C22.0602 33.6236 22.925 34.0006 23.8267 34.0006H27.2267C28.1284 34.0006 28.9932 33.6236 29.6309 32.9524C30.2685 32.2812 30.6267 31.3709 30.6267 30.4217V16.8664L31.1409 17.3943C31.2996 17.5643 31.489 17.6991 31.6979 17.791C31.9067 17.8829 32.1309 17.93 32.3573 17.9294C32.5837 17.9289 32.8077 17.8807 33.0161 17.7878C33.2246 17.6949 33.4133 17.5591 33.5713 17.3884C33.7292 17.2177 33.8531 17.0155 33.9358 16.7936C34.0185 16.5718 34.0584 16.3348 34.0529 16.0966C34.0474 15.8584 33.9967 15.6237 33.9039 15.4064C33.8111 15.189 33.6781 14.9934 33.5125 14.8309Z" fill="white"/>
</g>
<defs>
<clipPath id="clip0_71_680">
<rect width="34" height="34" fill="white"/>
</clipPath>
</defs>
</svg>
